<?xml version="1.0" standalone="no"?>
<!DOCTYPE svg PUBLIC "-//W3C//DTD SVG 1.1//EN" "http://www.w3.org/Graphics/SVG/1.1/DTD/svg11.dtd">
<svg xmlns="http://www.w3.org/2000/svg">
<metadata>Copyright (C) 2019 by original authors @ fontello.com</metadata>
<defs>
<font id="icon-anbruch" horiz-adv-x="1000" >
<font-face font-family="icon-anbruch" font-weight="400" font-stretch="normal" units-per-em="1000" ascent="850" descent="-150" />
<missing-glyph horiz-adv-x="1000" />
<glyph glyph-name="crm-qualify" unicode="&#xe800;" d="M766 409c0 31-25 57-57 57h-106c26 29 43 62 46 91 2 18-4 36-15 49-11 12-25 19-41 19 0 0-1 0-1 0-15 0-29-6-40-17-11-11-17-25-17-40-1-3-7-15-21-29-12-11-32-26-62-36-12-4-23-11-32-21-5-5-13-13-22-20-4 3-9 4-15 4h-100c-18 0-32-15-32-32v-268c0-18 14-32 32-32h100c12 0 23 7 28 17h256c27 0 49 22 49 49 0 9-2 17-7 25 14 8 24 24 24 42 0 9-3 17-7 24 14 9 24 25 24 42 0 11-4 20-9 28 15 10 25 28 25 48z m-57-27h-8c-9 0-16-7-16-15 0-9 7-16 16-16 9 0 17-8 17-18s-8-17-17-17h-17c-9 0-16-7-16-16 0-9 7-16 16-16 10 0 18-8 18-17 0-10-8-18-18-18h-17c-8 0-16-7-16-16 0-9 7-16 16-16 10 0 18-7 18-17 0-10-8-18-18-18h-252v151c0 9-7 16-15 16s-16-7-16-16v-167c0 0 0-1-1-1h-100c-1 0-1 1-1 1v268c0 0 0 1 1 1h100c1 0 1-1 1-1v-34c0-8 7-16 16-16s15 8 15 16v34c0 0 0 1 0 2 12 9 22 18 28 25 5 6 12 10 18 12 37 12 62 31 76 45 18 18 29 36 29 50 0 7 3 13 8 18 5 5 11 7 18 7 9 0 15-4 18-8 6-6 9-16 8-25-4-31-28-69-64-98-5-4-7-11-4-17 2-6 8-10 14-10h145c14 0 26-12 26-26s-12-27-26-27z m-376-150c-9 0-16-7-16-15 0-9 7-16 16-16 9 0 16 7 16 16 0 8-7 15-16 15z m639 118l27 71c2 5 1 11-2 16l-48 59 4 76c0 5-3 11-7 14l-64 42-20 73c-2 5-6 9-11 11l-73 20-42 64c-3 4-9 7-14 7l-76-4-59 48c-5 3-11 4-16 2l-71-27-71 27c-5 2-11 1-15-2l-60-48-76 4c-5 0-11-3-14-7l-41-64-74-20c-5-2-9-6-11-11l-20-73-63-42c-5-3-8-9-8-14l4-76-48-59c-3-5-4-11-2-16l27-71-27-71c-2-5-1-11 2-15l48-60-4-76c0-5 3-11 8-14l63-41 20-74c2-5 6-9 11-11l74-20 41-64c3-4 9-7 14-7l76 4 60-48c4-3 10-4 15-2l71 27 71-27c2-1 4-1 6-1 3 0 7 1 10 3l59 48 76-4c5 0 11 3 14 7l42 64 73 20c5 2 9 6 11 11l20 74 64 41c4 3 7 9 7 14l-4 76 48 60c3 4 4 10 2 15l-27 71z m-31-5l26-69-46-57c-2-3-4-7-4-10l4-73-61-41c-3-2-6-5-7-8l-19-71-70-19c-4-1-7-4-9-7l-41-61-73 4c-3 0-7-2-10-4l-57-46-68 26c-2 1-4 1-6 1-2 0-4 0-5-1l-69-26-57 46c-3 2-7 4-10 4l-73-4-41 61c-2 3-5 6-8 7l-71 19-19 71c-1 3-4 6-7 8l-61 41 4 73c0 3-1 7-4 10l-45 57 25 69c2 3 2 7 0 11l-25 68 45 57c3 3 4 7 4 10l-4 73 61 41c3 2 6 5 7 9l19 70 71 19c3 1 6 4 8 7l41 61 73-4c3 0 7 2 10 4l57 46 69-26c3-2 7-2 11 0l68 26 57-46c3-2 7-4 10-4l73 4 41-61c2-3 5-6 9-7l70-19 19-70c1-4 4-7 7-9l61-41-4-73c0-3 2-7 4-10l46-57-26-68c-2-4-2-8 0-11z m-147 275c-4 5-8 9-12 13-4 4-8 8-12 12-7 6-17 5-22-1-6-6-6-16 1-22 3-4 7-7 11-11 4-4 8-8 11-12 3-3 7-5 12-5 4 0 7 2 10 4 7 6 7 16 1 22z m-80 68c-75 48-166 69-256 60-91-10-176-50-241-115-71-71-113-166-117-266-4-100 29-198 93-274 3-3 8-5 12-5 4 0 7 1 10 3 7 6 8 16 2 22-59 71-89 160-86 252 4 93 42 180 108 246 60 59 139 97 222 106 83 8 167-11 236-56 8-4 17-2 22 5 5 7 2 17-5 22z m123-123c-5 7-14 9-22 5-7-5-9-15-4-22 44-70 64-153 55-236-9-84-46-163-106-222-66-66-153-104-245-108-93-4-182 27-252 86-7 6-17 5-22-2-6-7-5-16 1-22 73-61 163-94 257-94 6 0 11 0 17 1 100 4 195 45 266 117 65 64 106 150 115 241 9 89-12 180-60 256z" horiz-adv-x="1000" />

<glyph glyph-name="crm-notification" unicode="&#xe801;" d="M656 663c-6 0-17-1-29-8l-574-181c-5-2-9-5-13-8-4-4-40-43-40-116 0-73 36-112 40-116 4-3 8-6 13-7l103-33c0 0 0 0 0 0v-125c0-52 42-94 94-94h156c52 0 94 42 94 94v16l127-40c12-7 22-7 29-7h0c24 0 94 0 94 312 0 313-71 313-94 313z m-218-563v-31c0-17-14-31-32-31h-156c-17 0-31 14-31 31v105l219-69c0-2 0-3 0-5z m145 25l-502 158c-7 10-18 32-18 67 0 36 12 58 18 67l502 158c-12-46-20-117-20-225 0-108 8-179 20-225z m73-19c-12 21-31 88-31 244s19 223 31 244c12-21 32-88 32-244s-20-223-32-244z m163-19c37 78 56 169 56 263 0 94-19 186-56 263-8 16-26 23-42 15-16-7-22-26-15-41 33-70 51-152 51-237 0-85-18-167-51-237-7-15-1-34 15-41 4-2 9-3 13-3 12 0 23 6 29 18z m26 661c-13 12-33 11-44-2s-10-33 3-44c82-73 134-208 134-352 0-144-52-278-134-352-13-11-15-31-3-44 6-7 15-10 23-10 8 0 15 2 21 8 97 85 155 234 155 398 0 164-58 313-155 398z" horiz-adv-x="1000" />

<glyph glyph-name="crm-bill" unicode="&#xe802;" d="M928 370h-145v461c0 7-5 15-12 18-7 3-16 1-21-5l-55-55-56 55c-7 8-20 8-27 0l-56-55-55 55c-8 8-20 8-28 0l-55-55-55 55c-8 8-20 8-28 0l-55-55-56 55c-7 8-20 8-27 0l-56-55-55 55c-7 8-20 8-27 0-4-4-6-9-6-14v-878c0-56 45-102 101-102h692c0 0 0 0 0 0 0 0 0 0 0 0 56 0 101 46 101 102v398c0 11-8 20-19 20z m-774-481c-34 0-62 28-62 63v831l36-35c7-8 20-8 27 0l56 55 55-55c8-8 20-8 28 0l55 55 55-55c8-8 20-8 28 0l55 55 55-55c8-8 20-8 28 0l55 55 56-55c7-8 20-8 27 0l36 35v-433c0 0 0 0 0 0v-398c0-24 8-46 22-63h-612z m754 63c0-35-28-63-62-63s-63 28-63 63v379h125v-379z m-490 588c-19 0-35 13-35 30 0 16 16 30 35 30 19 0 35-14 35-30 0-11 9-20 20-20 10 0 19 9 19 20 0 32-23 59-54 67v13c0 11-9 19-20 19s-20-8-20-19v-13c-31-8-54-35-54-67 0-38 33-69 74-69 19 0 35-14 35-30s-16-30-35-30c-19 0-35 13-35 30 0 10-9 19-20 19s-19-9-19-19c0-32 23-59 54-67v-16c0-11 9-20 20-20s20 9 20 20v16c31 8 54 35 54 67 0 38-33 69-74 69z m196 0h-38c-11 0-19-9-19-20s8-19 19-19h38c11 0 20 8 20 19s-9 20-20 20z m-354 0h-38c-11 0-20-9-20-20s9-19 20-19h38c11 0 19 8 19 19s-8 20-19 20z m364-217h-309c-11 0-20-9-20-20 0-11 9-19 20-19h309c11 0 20 8 20 19 0 11-9 20-20 20z m-398-6c-4 4-9 6-14 6-5 0-10-2-14-6-4-4-6-9-6-14 0-5 2-10 6-14 4-3 9-5 14-5 5 0 10 2 14 5 3 4 5 9 5 14 0 5-2 10-5 14z m398-123h-309c-11 0-20-9-20-20 0-11 9-19 20-19h309c11 0 20 8 20 19 0 11-9 20-20 20z m-398-6c-4 4-9 6-14 6-5 0-10-2-14-6-4-4-6-9-6-14 0-5 2-10 6-14 4-3 9-5 14-5 5 0 10 2 14 5 3 4 5 9 5 14 0 5-2 10-5 14z m398-123h-309c-11 0-20-9-20-20s9-19 20-19h309c11 0 20 9 20 19s-9 20-20 20z m-398-6c-4 4-9 6-14 6-5 0-10-2-14-6-4-3-6-9-6-14s2-10 6-13c4-4 9-6 14-6 5 0 10 2 14 6 3 3 5 8 5 13s-2 11-5 14z" horiz-adv-x="1000" />

<glyph glyph-name="crm-checklist" unicode="&#xe803;" d="M829 14c7 0 13 7 13 14v755c0 35-28 63-63 64h-432c-4 0-7-2-10-5l-175-175c-3-3-4-6-4-10v-740c0-35 28-63 63-64h558c35 1 63 29 63 64v48c0 8-6 14-13 14-8 0-14-6-14-14v-48c0-20-16-36-36-36h-558c-19 0-35 16-35 36v734l147 148v-128h-59c-8 0-14-6-14-14 0-8 6-14 14-14h73c8 0 14 6 14 14v162h418c20 0 36-16 36-36v-755c0-7 6-14 14-14l0 0z m0 0m-439 437c0 61 49 111 110 111 61 0 110-50 110-111 0-8 7-14 14-14 8 0 14 6 14 14 0 57-35 108-88 129 24 21 32 54 21 84-11 30-39 50-71 50-32 0-60-20-71-50-11-30-3-63 21-84-53-21-88-72-88-129 0-8 6-14 14-14 7 0 14 6 14 14h0z m62 187c0 26 21 48 48 48s48-22 48-48c0-27-21-49-48-49-27 0-48 22-48 49v0z m0 0m-86-271c-6 6-15 5-20-1l-38-42-24 24c-6 4-14 4-20-1-5-6-5-14 0-20l35-33c3-3 6-4 10-4h0c4 0 8 2 10 5l48 53c2 2 4 6 3 10 0 3-2 7-4 9l0 0z m0 0m360-36h-307c-8 0-14-7-14-14 0-8 6-14 14-14h307c8 0 14 6 14 14 0 7-6 14-14 14l0 0z m0 0m-360-108c-6 5-15 5-20-1l-38-42-24 23c-4 4-9 6-14 4-5-1-9-5-10-10-1-5 1-10 4-14l35-33c3-3 6-4 10-4h0c4 0 8 2 10 5l48 53c2 2 4 6 3 10 0 3-2 7-4 9l0 0z m0 0m360-37h-307c-8 0-14-6-14-14 0-7 6-14 14-14h307c8 0 14 7 14 14 0 8-6 14-14 14l0 0z m0 0m-380-108l-38-42-24 23c-4 4-9 5-14 4-5-1-9-5-10-10-1-5 1-11 4-14l35-33c3-3 6-4 10-4h0c4 0 8 2 10 4l48 53c3 4 4 9 3 14-2 5-6 8-11 9-5 1-10 0-13-4v0z m0 0m380-36h-307c-8 0-14-6-14-14 0-7 6-14 14-14h307c8 0 14 7 14 14 0 8-6 14-14 14l0 0z m0 0" horiz-adv-x="1000" />

<glyph glyph-name="crm-propose" unicode="&#xe804;" d="M767 409c8 0 15 7 15 15v232c0 19-15 34-34 34h-58v46c0 19-15 34-34 34h-60v46c0 19-15 34-34 34h-409c-8 0-14-7-14-15 0-8 6-15 14-15h409c2 0 4-2 4-4v-772c0-3-2-5-4-5-37 0-509 0-528 0-2 0-4 2-4 5v772c0 2 2 4 4 4h60c8 0 15 7 15 15 0 8-7 15-15 15h-60c-19 0-34-15-34-34v-772c0-19 15-34 34-34h60v-46c0-19 15-34 34-34h58v-46c0-19 15-34 34-34h528c19 0 34 15 34 34v481c0 8-7 15-15 15-8 0-15-7-15-15v-481c0-2-2-4-4-4h-528c-2 0-4 2-4 4v46h440c19 0 34 15 34 34v205c0 8-7 14-15 14-8 0-15-6-15-14v-205c0-3-2-5-4-5-14 0-514 0-528 0-2 0-4 2-4 5v46h438c19 0 34 15 34 34 0 21 0 662 0 697h60c2 0 4-2 4-5v-75-433c0-8 7-15 15-15 8 0 15 7 15 15v433h58c2 0 4-2 4-5v-232c0-8 7-15 15-15z m0 0m-386 295c0 46-37 83-83 83-46 0-84-37-84-83s38-84 84-84c46 0 83 38 83 84z m-137 0c0 29 24 53 54 53 30 0 54-24 54-53s-24-54-54-54c-30 0-54 24-54 54z m0 0m256-15c8 0 15 6 15 15 0 8-7 14-15 14h-69c-9 0-15-6-15-14 0-9 6-15 15-15z m0 0m-335 29h-69c-8 0-15-6-15-14 0-9 7-15 15-15h69c9 0 15 6 15 15 0 8-6 14-15 14z m0 0m-50-155c0-8 7-15 15-15h336c8 0 14 7 14 15 0 8-6 15-14 15h-336c-8 0-15-7-15-15z m0 0m351-57h-336c-8 0-15-6-15-15s7-14 15-14h336c8 0 14 6 14 14s-6 15-14 15z m0 0m0-72h-336c-8 0-15-6-15-14 0-9 7-15 15-15h336c8 0 14 6 14 15 0 8-6 14-14 14z m0 0m0-71h-336c-8 0-15-7-15-15 0-8 7-15 15-15h336c8 0 14 7 14 15 0 8-6 15-14 15z m0 0m0-72h-336c-8 0-15-7-15-15 0-8 7-15 15-15h336c8 0 14 7 14 15 0 8-6 15-14 15z m0 0m6-75c-6 5-16 4-21-2l-70-86-33 32c-6 5-15 5-21-1-6-5-6-15 0-20l37-36c10-10 27-10 36 2l74 90c5 6 4 16-2 21z m0 0" horiz-adv-x="1000" />

<glyph glyph-name="crm-develop" unicode="&#xe805;" d="M696 390c8 8 8 20 0 28-8 8-20 8-28 0-7-8-7-20 0-28 8-7 20-7 28 0z m0 0m-676-543h962c8 0 15 5 19 12s1 16-5 21l-963 963c-5 6-14 8-21 5-7-3-12-11-12-18v-963c0-11 9-20 20-20z m19 935l158-157-42-42c-8-7-8-20 0-27 8-8 20-8 28 0l41 41 83-83-41-41c-8-8-8-20 0-28 7-8 20-8 27 0l42 41 83-83-42-41c-7-8-7-20 0-28s21-7 28 0l42 42 83-83-42-42c-7-7-7-20 0-27s20-8 28 0l41 41 83-83-41-41c-8-8-8-21 0-28 8-8 20-8 28 0l41 41 83-83-41-41c-8-8-8-20 0-28 7-8 20-8 27 0l42 42 157-158h-896z m0 0m163-340c-6 6-14 7-22 4-7-3-12-10-12-18v-393c0-11 9-20 20-20h393c8 0 15 5 18 12 3 8 2 16-4 22z m5-387v326l327-326z m0 0m406 391c8-8 20-8 28 0 7 7 7 20 0 27l-83 83c-8 8-20 8-28 0-8-7-8-20 0-27z m0 0m-316 204l549-550c23-23 61-23 83 0l56 56c23 23 23 60 0 83l-550 549c-2 2-4 4-7 5l-166 55c-7 2-15 1-20-5-5-5-7-13-5-20l55-166c1-3 3-5 5-7z m660-439c8-8 8-20 0-28l-55-55c-8-8-20-8-28 0l-42 42 83 83z m-70 70l-83-83-28 28 83 83z m-452 453l397-398-83-83-397 398z m-30 25l-79-79-39 119z m0 0" horiz-adv-x="1002" />

<glyph glyph-name="crm-technical" unicode="&#xe806;" d="M966 759l-61 60c-39 39-105 42-147 5l-105-91c-2-2-3-3-4-4l-103-172-66-22c-5-2-9-6-11-12-1-6 1-12 5-16l180-180c3-3 7-5 12-5 1 0 2 1 4 1 5 1 10 5 12 11l22 66 174 105c1 1 2 2 4 3l89 104c36 42 34 108-5 147z m-21-125l-87-101-177-107c-4-2-6-6-7-9l-16-46-40 40c0 0 0 0 0 0l-60 60c0 0 0 0 0 0l-41 41 46 15c4 1 7 4 9 7l105 175 104 90c28 25 74 23 101-4l60-60c26-27 28-72 3-101z m-27-465c-50 49-124 67-190 45l-360 361c21 66 4 139-46 189-52 53-131 69-200 42-5-2-9-7-11-12-1-6 1-12 5-16l108-108-72-72-108 108c-4 4-10 6-15 5-6-1-11-5-13-11-27-69-10-147 42-200 50-50 123-67 190-45l134-135-167-168-107-60c-3-1-6-4-7-7l-48-96c-3-6-2-14 3-19l60-60c3-4 8-5 12-5 3 0 5 0 8 1l96 48c3 2 5 4 7 7l60 107 167 168 142-142c-21-66-4-140 46-189 35-36 83-55 132-55 23 0 46 4 68 13 5 2 9 7 10 12 1 6 0 12-4 16l-108 108 72 72 108-108c4-4 9-6 15-5 6 1 10 5 12 10 27 70 11 148-41 201z m-645-79c-1-1-2-2-3-3l-58-105-81-40-42 43 40 80 104 59c2 0 3 1 4 2l169 170 36-36-169-170z m662-83l-99 100c-7 6-18 6-24 0l-96-96c-3-4-5-8-5-12s2-9 5-12l99-100c-49-10-101 5-137 42-43 43-57 107-35 163 3 7 1 14-3 19l-376 375c-3 3-8 5-12 5-2 0-4 0-6-1-57-22-121-9-164 34-36 37-52 89-42 138l100-100c7-6 17-6 24 0l96 96c7 7 7 18 0 24l-100 100c50 10 102-5 138-42 43-43 56-107 34-164-2-6-1-13 4-18l376-375c4-5 12-7 18-4 56 22 121 8 164-34 36-37 51-89 41-138z" horiz-adv-x="1000" />

<glyph glyph-name="crm-delete" unicode="&#xe807;" d="M639 488c-13 0-23-11-23-24v-442c0-13 10-24 23-24s24 11 24 24v442c0 13-11 24-24 24l0 0z m0 0m-276 0c-13 0-24-11-24-24v-442c0-13 11-24 24-24 13 0 23 11 23 24v442c0 13-10 24-23 24l0 0z m0 0m-202 64v-577c0-34 13-66 35-89 22-23 52-36 83-36h444c31 0 61 13 83 36 22 23 35 55 35 89v577c43 12 71 54 65 98-5 45-43 78-88 78h-120v30c0 24-10 48-27 65-18 18-41 27-66 27h-208c-25 0-48-9-66-27-17-17-27-41-27-65v-30h-120c-45 0-83-33-88-78-6-44 22-86 65-98l0 0z m562-655h-444c-40 0-71 34-71 78v575h586v-575c0-44-31-78-71-78l0 0z m-372 861c0 12 5 23 13 32 9 9 21 13 33 13h208c12 0 24-4 33-13 8-9 13-20 13-32v-30h-300v30z m-167-77h634c23 0 42-18 42-42s-19-42-42-42h-634c-23 0-42 19-42 42s19 42 42 42l0 0z m0 0m317-193c-13 0-23-11-23-24v-442c0-13 10-24 23-24s23 11 23 24v442c0 13-10 24-23 24l0 0z m0 0" horiz-adv-x="1000" />

<glyph glyph-name="crm-arrow-long-right" unicode="&#xe808;" d="M608-1c-11-11-11-29 0-40 5-6 13-9 20-9 7 0 14 3 20 9l341 341c3 2 5 5 6 9 3 7 3 15 0 22-1 3-3 6-6 9l-341 341c-11 11-29 11-40 0-11-11-11-29 0-40l292-293h-869c-15 0-28-13-28-28 0-16 13-29 28-29h869l-292-292z m-50 147m295 604" horiz-adv-x="1000" />

<glyph glyph-name="crm-user-plus" unicode="&#xe809;" d="M961 601h-35v35c0 22-18 39-39 39-22 0-39-17-39-39v-35h-35c-22 0-40-17-40-39s18-39 40-39h35v-35c0-22 17-39 39-39 21 0 39 17 39 39v35h35c22 0 39 17 39 39s-17 39-39 39z m-345-238c60 46 98 118 98 199 0 138-113 251-251 251s-251-113-251-251c0-81 38-153 98-199-177-61-310-231-310-437 0-21 18-39 39-39h848c21 0 39 18 39 39 0 206-134 376-310 437z m-326 199c0 95 78 173 173 173s173-78 173-173-78-173-173-173-173 78-173 173z m-210-597c20 194 184 346 383 346s363-152 383-346h-766z" horiz-adv-x="1000" />

<glyph glyph-name="crm-user-out" unicode="&#xe80a;" d="M876 88l-92 92c-7 6-18 6-24 0-7-7-7-18 0-25l62-62h-247c-9 0-17-8-17-17 0-10 8-18 17-18h247l-62-62c-7-7-7-18 0-24 3-4 7-5 12-5s9 1 12 5l92 91c6 7 6 18 0 25z m-450 276c55 0 109 34 152 95 38 54 61 120 61 178 0 118-96 213-213 213s-213-95-213-213c0-58 23-124 60-178 43-61 97-95 153-95z m0 451c98 0 178-80 178-178 0-50-21-111-54-158-36-51-81-80-124-80-43 0-89 29-124 80-34 47-54 108-54 158 0 98 80 178 178 178z m89-872c0 1 0 1 0 1-1 2-2 4-3 5-7 7-18 7-25 0-7-6-7-18 0-24 6-6 16-7 22-2 7 4 9 13 6 20 1 0 1 0 0 0z m204 358c-1 0-3 0-5 0-34 43-79 79-129 102-7 3-14 2-20-3-41-42-90-64-139-64-50 0-98 22-140 64-5 5-13 6-19 3-63-29-116-76-153-134-39-60-59-129-59-201v0c0-5 2-10 6-13 100-91 230-141 365-141 7 0 14 0 21 1 10 0 17 8 17 18 0 9-8 17-18 16-7 0-13 0-20 0-124 0-243 45-336 127 1 62 20 122 53 174 32 50 76 90 128 117 46-43 100-66 155-66 55 0 108 23 155 66 34-18 65-42 92-71-102-21-179-112-179-220 0-125 101-226 225-226 125 0 226 101 226 226 0 124-101 225-226 225z m0-416c-105 0-190 85-190 191 0 105 85 191 190 191 106 0 191-86 191-191 0-106-85-191-191-191z" horiz-adv-x="1000" />

<glyph glyph-name="crm-hexagon" unicode="&#xe80b;" d="M466 838a67 67 0 0 0 68 0l371-215a67 67 0 0 0 34-58l0-430a67 67 0 0 0-34-58l-371-215a67 67 0 0 0-68 0l-371 215a67 67 0 0 0-34 58l0 430a67 67 0 0 0 34 58" horiz-adv-x="1000" />

<glyph glyph-name="crm-add-contact" unicode="&#xe80c;" d="M630 691l55 55 98-97 162 162 55-56-217-217z m310-106c39-72 59-152 59-236 0-134-51-259-146-354-94-94-220-145-353-145-134 0-259 51-354 145-94 95-146 220-146 354 0 133 52 259 146 353 95 94 220 147 354 147 53 0 104-9 153-24l-64-64c-29 6-59 9-89 9-233 0-422-189-422-421 0-107 40-204 105-278 23 101 93 185 186 226-39 36-63 87-63 143 0 107 87 194 194 194 107 0 194-87 194-194 0-56-25-107-64-143 94-41 164-125 187-226 65 74 104 171 104 278 0 63-14 124-39 178z m-440-260c64 0 116 52 116 115 0 64-52 116-116 116-64 0-116-52-116-116 0-63 52-115 116-115z m0-398c92 0 177 30 246 80-3 133-113 239-246 239s-243-106-247-239c70-50 155-80 247-80z m0 0" horiz-adv-x="1000" />

<glyph glyph-name="crm-paid" unicode="&#xe80d;" d="M1000 694v-264c0-21-17-39-39-39s-39 18-39 39v264c0 43-35 78-78 78h-688c-43 0-78-35-78-78v-688c0-43 35-78 78-78h492c22 0 40-17 40-39s-18-39-40-39h-492c-86 0-156 70-156 156v688c0 86 70 156 156 156h688c86 0 156-70 156-156z m-451-352h-61c-21 0-39-17-39-39s18-39 39-39h61c108 0 195 88 195 195s-87 196-195 196h-217c-21 0-39-18-39-39 0-2 0-4 1-6-1-2-1-4-1-6v-520c0-21 18-39 39-39s39 18 39 39v493h178c64 0 117-53 117-118s-53-117-117-117z m340-203h-36c-17 0-32 15-32 33v15c0 17 14 30 32 30h34c10 0 20-6 20-18 0-21 18-39 39-39 22 0 39 18 39 39 0 47-34 86-80 95v25c0 21-17 39-39 39s-39-18-39-39v-27c-19-4-37-14-51-28-21-20-33-48-33-77v-15c0-61 50-111 110-111h36c18 0 32-14 32-31v-10c0-17-14-29-32-29h-58c-10 0-19 6-19 17 0 22-18 39-40 39s-39-17-39-39c0-52 41-94 94-95v-22c0-22 18-39 39-39s39 17 39 39v23c54 7 94 51 94 106v10c0 30-11 57-32 78-21 20-49 31-78 31z m0 0" horiz-adv-x="1000" />

<glyph glyph-name="tab-corner" unicode="&#xe80e;" d="M1000-150h-200l1 33c4 102 15 372-164 559-133 138-347 208-637 208v200c346 0 609-91 781-270 239-248 224-592 220-705l-1-25z" horiz-adv-x="1000" />

<glyph glyph-name="add-user" unicode="&#xe80f;" d="M716 370c-61 0-119-25-161-69-60 48-135 74-212 74h-1c-93-1-178-37-242-102-65-66-100-157-100-255 0-5 2-10 6-14 4-4 9-6 14-6l531 1c1-1 2-3 4-4 69-74 180-91 269-42 88 49 133 152 108 250-26 99-114 167-216 167z m-675-331c4 79 35 152 88 206 56 57 132 89 213 89h1c68 0 134-23 187-65-45-69-48-157-8-229z m675-73c-100 0-182 81-182 182 0 100 82 182 182 182s182-82 182-182c0-101-81-182-182-182z m0 0m-374 457c118 0 214 95 214 213 0 118-96 214-214 214s-213-96-213-214c0-118 95-213 213-213z m0 387c96 0 173-78 173-174 0-95-77-173-173-173-95 0-173 78-173 173 0 96 78 173 173 174z m0 0m456-642h-62v62c0 11-9 20-20 20-11 0-20-9-20-20v-62h-62c-11 0-20-9-20-20 0-11 9-20 20-20h62v-62c0-11 9-20 20-20 11 0 20 9 20 20v62h62c11 0 20 9 20 20 0 11-9 20-20 20z m0 0" horiz-adv-x="1000" />

<glyph glyph-name="calendar-1" unicode="&#xe810;" d="M0-66l0 738q0 35 24 60t60 24l135 0 0 63q0 13 9 22t22 9 22-9 9-22l0-63 188 0 0 63q0 13 9 22t22 9 22-9 9-22l0-63 188 0 0 63q0 13 9 22t22 9 22-9 9-22l0-63 135 0q35 0 60-24t24-60l0-738q0-35-24-60t-60-24l-832 0q-35 0-60 24t-24 60z m63 0q0-10 5-16t16-6l832 0q10 0 16 6t5 16l0 738q0 10-5 16t-16 6l-135 0 0-63q0-13-9-22t-22-9-22 9-9 22l0 63-188 0 0-63q0-13-9-22t-22-9-22 9-9 22l0 63-188 0 0-63q0-13-9-22t-22-9-22 9-9 22l0 63-135 0q-10 0-16-6t-5-16l0-738z m156 135l0 94 125 0 0-94-125 0z m0 156l0 94 125 0 0-94-125 0z m0 156l0 94 125 0 0-94-125 0z m219-312l0 94 125 0 0-94-125 0z m0 156l0 94 125 0 0-94-125 0z m0 156l0 94 125 0 0-94-125 0z m218-312l0 94 125 0 0-94-125 0z m0 156l0 94 125 0 0-94-125 0z m0 156l0 94 125 0 0-94-125 0z" horiz-adv-x="1000" />

<glyph glyph-name="user" unicode="&#xe811;" d="M426 364c55 0 109 34 152 95 38 54 61 120 61 178 0 118-96 213-213 213-118 0-213-95-213-213 0-58 23-124 60-178 43-61 97-95 153-95z m0 451c98 0 178-80 178-178 0-50-21-111-54-158-36-51-81-80-124-80-43 0-89 29-124 80-34 47-54 108-54 158 0 98 80 178 178 178z m83-864c0 0 0 0 0 0 0 1 0 0 0 0-7 5-16 4-22-2-5-5-6-12-4-19 3-6 9-10 16-11 7 0 14 5 17 12 2 7 0 16-7 20z m210 350c-1 0-3 0-5 0-34 43-79 79-129 102-7 3-14 2-20-3-41-42-90-64-139-64-50 0-98 22-140 64-5 5-13 6-19 3-63-29-116-76-153-134-39-60-59-129-59-201v0c0-5 2-10 6-13 100-91 230-141 365-141 7 0 14 0 21 1 10 0 17 8 17 18 0 9-8 17-18 16-7 0-13 0-20 0-124 0-243 45-336 127 1 62 20 122 53 174 32 50 76 90 128 117 46-43 100-66 155-66 55 0 108 23 155 66 34-18 65-42 92-71-102-21-179-112-179-220 0-125 101-226 225-226 125 0 226 101 226 226 0 124-101 225-226 225z m0-416c-105 0-190 85-190 191 0 105 85 191 190 191s191-86 191-191c0-106-85-191-191-191z m144 208h-126v127c0 9-8 17-18 17s-17-8-17-17v-127h-127c-9 0-17-8-17-17 0-10 8-18 17-18h127v-126c0-10 8-18 17-18s18 8 18 18v126h126c10 0 18 8 18 18 0 9-8 17-18 17z" horiz-adv-x="1000" />

<glyph glyph-name="left" unicode="&#xe812;" d="M0 353l390 391q19 18 44 18 25 0 43-18t18-44-18-43l-243-243h642q25 0 43-18t18-43-18-43-43-18h-642l243-243q18-18 18-44t-18-43-43-18-44 18z" horiz-adv-x="938" />

<glyph glyph-name="right" unicode="&#xe813;" d="M0 347q0 26 18 43t43 17h642l-242 244q-19 18-19 44t19 42q17 19 42 19t44-19l390-390-390-391q-20-18-44-18t-42 18-19 44 19 43l242 242h-642q-25 0-43 18t-18 44z" horiz-adv-x="938" />

<glyph glyph-name="holiday" unicode="&#xe814;" d="M567 217c0-92 75-167 167-167 92 0 166 75 166 167 0 92-74 166-166 166-92 0-167-74-167-166z m167 133c73 0 133-60 133-133s-60-134-133-134-134 60-134 134c0 73 60 133 134 133z m0 0m-96-467h191v-33h-191z m0 0m-71 67h333v-33h-333z m0 0m-367 0h34v-33h-34z m0 0m-100-33h34v-34h-34z m0 0m102 127c87 151 142 319 160 493l155-154c3-3 8-5 12-5 1 0 2 0 3 0 5 1 10 5 12 9 31 63 19 139-31 188l-13 14h117c9 0 17 8 17 17 0 2-1 3-1 5-22 67-85 111-155 111h-21l83 84c6 7 6 17 0 24-1 1-3 2-5 3-62 31-138 19-188-31l-16-16c-5-5-10-10-14-16-4 6-9 11-14 16l-16 16c-50 50-126 62-188 31-9-4-12-14-8-23 1-1 2-3 3-4l84-84h-22c-70 0-133-44-155-111-3-9 2-18 11-21 1-1 3-1 5-1h117l-13-14c-50-49-62-125-31-188 2-4 7-8 12-9 1 0 2 0 3 0 4 0 9 2 12 5l144 144c-18-160-78-312-174-441-23 6-45 11-68 14l-11 1-3-33 10-1c16-3 33-6 49-10-3-4-6-8-10-12l26-22c128 153 204 342 218 540l19 19 14-14c-17-212-90-416-211-592l27-19c13 19 26 38 38 58 78-37 147-91 202-158l25 21c-32 40-69 75-110 105h698v34h-748c-16 10-33 19-50 27z m321 381l-176 175c45 13 94 1 127-32l16-16c33-33 46-82 33-127z m69 197h-138c-33 16-69 20-104 13 25 34 64 54 106 54h22c47 0 91-25 114-67z m-237 141l16 16c33 33 82 46 127 33l-99-100c-32-12-59-33-78-61-8 40 5 82 34 112z m-92 16l16-16c7-8 14-16 19-25-7-18-12-37-13-56-15 13-32 23-50 30l-99 100c45 13 94 0 127-33z m-107-90h22c42 0 81-20 106-54-35 7-71 3-103-13h-139c23 42 67 67 114 67z m-45-264c-13 45 0 94 33 127l16 16c24 24 56 37 90 37 13 0 25-2 37-5z m0 0" horiz-adv-x="1000" />

<glyph glyph-name="doc-text" unicode="&#xf0f6;" d="M819 638q16-16 27-42t11-50v-642q0-23-15-38t-38-16h-750q-23 0-38 16t-16 38v892q0 23 16 38t38 16h500q22 0 49-11t42-27z m-248 136v-210h210q-5 17-12 23l-175 175q-6 7-23 12z m215-853v572h-232q-23 0-38 16t-16 37v233h-429v-858h715z m-572 483q0 7 5 12t13 5h393q8 0 13-5t5-12v-36q0-8-5-13t-13-5h-393q-8 0-13 5t-5 13v36z m411-125q8 0 13-5t5-13v-36q0-8-5-13t-13-5h-393q-8 0-13 5t-5 13v36q0 8 5 13t13 5h393z m0-143q8 0 13-5t5-13v-36q0-8-5-13t-13-5h-393q-8 0-13 5t-5 13v36q0 8 5 13t13 5h393z" horiz-adv-x="857.1" />

<glyph glyph-name="crm-angle-up" unicode="&#xf106;" d="M600 189q0-7-6-12l-28-28q-5-6-12-6t-13 6l-220 219-219-219q-5-6-13-6t-12 6l-28 28q-6 5-6 12t6 13l260 260q5 6 12 6t13-6l260-260q6-5 6-13z" horiz-adv-x="642.9" />

<glyph glyph-name="crm-angle-down" unicode="&#xf107;" d="M600 439q0-7-6-12l-260-261q-5-5-13-5t-12 5l-260 261q-6 5-6 12t6 13l28 28q5 6 12 6t13-6l219-219 220 219q5 6 13 6t12-6l28-28q6-5 6-13z" horiz-adv-x="642.9" />

<glyph glyph-name="folder-open-empty" unicode="&#xf115;" d="M994 331q0 19-30 19h-607q-22 0-48-12t-39-29l-164-203q-11-13-11-22 0-20 30-20h607q23 0 48 13t40 29l164 203q10 12 10 22z m-637 90h429v90q0 22-16 38t-38 15h-321q-23 0-38 16t-16 38v36q0 22-15 38t-38 15h-179q-22 0-38-15t-16-38v-476l143 175q25 30 65 49t78 19z m708-90q0-35-25-67l-165-203q-24-30-65-49t-78-19h-607q-51 0-88 37t-37 88v536q0 51 37 88t88 37h179q51 0 88-37t37-88v-18h303q52 0 88-37t37-88v-90h107q30 0 56-13t37-40q8-17 8-37z" horiz-adv-x="1071.4" />
</font>
</defs>
</svg>
