<svg height="512pt" viewBox="0 0 512 512" width="512pt" xmlns="http://www.w3.org/2000/svg"><path d="m512 80v135c0 11.046875-8.953125 20-20 20s-20-8.953125-20-20v-135c0-22.054688-17.945312-40-40-40h-352c-22.054688 0-40 17.945312-40 40v352c0 22.054688 17.945312 40 40 40h252c11.046875 0 20 8.953125 20 20s-8.953125 20-20 20h-252c-44.113281 0-80-35.886719-80-80v-352c0-44.113281 35.886719-80 80-80h352c44.113281 0 80 35.886719 80 80zm-231 180h-31c-11.046875 0-20 8.953125-20 20s8.953125 20 20 20h31c55.140625 0 100-44.859375 100-100s-44.859375-100-100-100h-111c-11.046875 0-20 8.953125-20 20 0 1.023438.101562 2.019531.25 3-.148438.980469-.25 1.976562-.25 3v266c0 11.046875 8.953125 20 20 20s20-8.953125 20-20v-252h91c33.085938 0 60 26.914062 60 60s-26.914062 60-60 60zm174.140625 104h-18.328125c-8.8125 0-16.253906-7.785156-16.253906-17v-7.292969c0-8.953125 6.988281-15.707031 16.253906-15.707031h17.332031c5.089844 0 10.359375 3.410156 10.359375 9.117188 0 11.042968 8.957032 20 20 20 11.046875 0 20-8.957032 20-20 0-23.96875-17.699218-43.972657-41.019531-48.257813v-12.859375c0-11.046875-8.953125-20-20-20s-20 8.953125-20 20v13.546875c-9.898437 2.335937-18.964844 7.273437-26.320313 14.46875-10.707031 10.476563-16.605468 24.574219-16.605468 39.6875v7.296875c0 31.429688 25.234375 57 56.253906 57h18.328125c9.175781 0 16.363281 6.957031 16.363281 15.839844v4.910156c0 8.691406-7.035156 15.25-16.363281 15.25h-29.785156c-4.917969 0-9.890625-3.09375-9.890625-9 0-11.046875-8.953125-20-20-20s-20 8.953125-20 20c0 26.859375 20.945312 48.019531 48.019531 48.953125v11.046875c0 11.046875 8.953125 20 20 20s20-8.953125 20-20v-11.582031c27.511719-3.84375 48.019531-26.472657 48.019531-54.667969v-4.910156c0-15.113282-5.914062-29.230469-16.65625-39.75-10.59375-10.375-24.695312-16.089844-39.707031-16.089844zm0 0"/></svg>